<?xml version="1.0" encoding="UTF-8" standalone="no"?>
<svg
   xmlns:dc="http://purl.org/dc/elements/1.1/"
   xmlns:cc="http://creativecommons.org/ns#"
   xmlns:rdf="http://www.w3.org/1999/02/22-rdf-syntax-ns#"
   xmlns:svg="http://www.w3.org/2000/svg"
   xmlns="http://www.w3.org/2000/svg"
   xmlns:sodipodi="http://sodipodi.sourceforge.net/DTD/sodipodi-0.dtd"
   xmlns:inkscape="http://www.inkscape.org/namespaces/inkscape"
   height="464pt"
   viewBox="0 -24 464 464"
   width="464pt"
   version="1.1"
   id="svg38"
   sodipodi:docname="safe-box.svg"
   inkscape:export-filename="/home/phoenix/Developpement/Shadoware.Org/Private/Website/passprotect/passprotect-vue2/public/safe-box.png"
   inkscape:export-xdpi="19.4"
   inkscape:export-ydpi="19.4"
   inkscape:version="0.92.1 r15371">
  <metadata
     id="metadata44">
    <rdf:RDF>
      <cc:Work
         rdf:about="">
        <dc:format>image/svg+xml</dc:format>
        <dc:type
           rdf:resource="http://purl.org/dc/dcmitype/StillImage" />
      </cc:Work>
    </rdf:RDF>
  </metadata>
  <defs
     id="defs42" />
  <sodipodi:namedview
     pagecolor="#ffffff"
     bordercolor="#666666"
     borderopacity="1"
     objecttolerance="10"
     gridtolerance="10"
     guidetolerance="10"
     inkscape:pageopacity="0"
     inkscape:pageshadow="2"
     inkscape:window-width="1304"
     inkscape:window-height="780"
     id="namedview40"
     showgrid="false"
     inkscape:zoom="0.38146552"
     inkscape:cx="20.971751"
     inkscape:cy="309.33333"
     inkscape:window-x="2075"
     inkscape:window-y="112"
     inkscape:window-maximized="0"
     inkscape:current-layer="svg38" />
  <path
     d="m0 0h464v384h-464zm0 0"
     fill="#4398d1"
     id="path2" />
  <path
     d="m464 84-300 300h300zm0 0"
     fill="#388bc2"
     id="path4" />
  <path
     d="m80 384h-80v32h64zm0 0"
     fill="#babab8"
     id="path6" />
  <path
     d="m464 384h-80l16 32h64zm0 0"
     fill="#babab8"
     id="path8" />
  <path
     d="m40 40h384v304h-384zm0 0"
     fill="#4398d1"
     id="path10" />
  <g
     fill="#337eb0"
     id="g18">
    <path
       d="m424 352h-384c-4.417969 0-8-3.582031-8-8v-304c0-4.417969 3.582031-8 8-8h384c4.417969 0 8 3.582031 8 8v304c0 4.417969-3.582031 8-8 8zm-376-16h368v-288h-368zm0 0"
       id="path12" />
    <path
       d="m40 88h32v64h-32zm0 0"
       id="path14" />
    <path
       d="m40 232h32v64h-32zm0 0"
       id="path16" />
  </g>
  <path
     d="m408 184c0 26.507812-21.492188 48-48 48s-48-21.492188-48-48 21.492188-48 48-48 48 21.492188 48 48zm0 0"
     fill="#388bc2"
     id="path20" />
  <path
     d="m392 168c0 26.507812-21.492188 48-48 48s-48-21.492188-48-48 21.492188-48 48-48 48 21.492188 48 48zm0 0"
     fill="#f79d1e"
     id="path22" />
  <path
     d="m344 160c8.835938 0 16 7.164062 16 16v72.007812c0 8.835938-7.164062 16-16 16s-16-7.164062-16-16v-72.007812c0-8.835938 7.164062-16 16-16zm0 0"
     fill="#ffc14d"
     id="path24" />
  <path
     d="m280 208c0 44.183594-35.816406 80-80 80s-80-35.816406-80-80 35.816406-80 80-80 80 35.816406 80 80zm0 0"
     fill="#388bc2"
     id="path26" />
  <path
     d="m264 192c0 44.183594-35.816406 80-80 80s-80-35.816406-80-80 35.816406-80 80-80 80 35.816406 80 80zm0 0"
     fill="#ffc14d"
     id="path28" />
  <path
     d="m200 192c0 8.835938-7.164062 16-16 16s-16-7.164062-16-16 7.164062-16 16-16 16 7.164062 16 16zm0 0"
     fill="#f79d1e"
     id="path30" />
  <path
     d="m264 200v-16h-24.640625c-1.324219-9.242188-4.957031-18.003906-10.558594-25.472656l17.4375-17.4375-11.308593-11.3125-17.441407 17.4375c-7.472656-5.609375-16.238281-9.25-25.488281-10.574219v-24.640625h-16v24.640625c-9.242188 1.324219-18.003906 4.957031-25.472656 10.558594l-17.4375-17.4375-11.3125 11.308593 17.4375 17.441407c-5.609375 7.472656-9.25 16.238281-10.574219 25.488281h-24.640625v16h24.640625c1.324219 9.242188 4.957031 18.003906 10.558594 25.472656l-17.4375 17.4375 11.308593 11.3125 17.441407-17.4375c7.472656 5.609375 16.238281 9.25 25.488281 10.574219v24.640625h16v-24.640625c9.242188-1.324219 18.003906-4.957031 25.472656-10.558594l17.4375 17.4375 11.3125-11.308593-17.4375-17.441407c5.609375-7.472656 9.25-16.238281 10.574219-25.488281zm-80 32c-22.089844 0-40-17.910156-40-40s17.910156-40 40-40 40 17.910156 40 40c-.027344 22.082031-17.917969 39.972656-40 40zm0 0"
     fill="#f79d1e"
     id="path32" />
  <path
     d="m360 248c-.015625 5.691406-3.0625 10.941406-8 13.777344 2.421875 1.4375 5.183594 2.207031 8 2.222656 8.835938 0 16-7.164062 16-16v-44.296875c-4.660156 4.1875-10.09375 7.414063-16 9.503906zm0 0"
     fill="#388bc2"
     id="path34" />
  <path
     d="m360 160c-2.816406.015625-5.578125.78125-8 2.214844 4.933594 2.839844 7.984375 8.09375 8 13.785156v37.207031c5.90625-2.089843 11.339844-5.316406 16-9.503906v-27.703125c0-8.835938-7.164062-16-16-16zm0 0"
     fill="#e6921c"
     id="path36" />
</svg>
